# xmcd
#
# Track frame offsets:
#	150
#	25776
#	42483
#	60164
#	84839
#	101755
#	125291
#	143031
#	165735
#	183119
#	201665
#	221417
#	234778
#	246973
#	266277
#	279584
#	306014
#
# Disc length: 4369 seconds
#
# Revision: 0
# Processed by: cddbd v1.5.2PL0 Copyright (c) Steve Scherf et al.
# Submitted via: EasyCDDAExtractor 12.0.7.1
#
DISCID=e0110f11
DTITLE=Евгений Кемеровский - Аллея шансона
DYEAR=2011
DGENRE=Chanson
TTITLE0=Братва, не стреляйте друг друга
TTITLE1=Неизвестный паром
TTITLE2=Севастополь
TTITLE3=Непрощенная
TTITLE4=Поезд на Магадан
TTITLE5=Ностальгия
TTITLE6=Холодное утро
TTITLE7=Не ругай меня, мама
TTITLE8=Милая
TTITLE9=Я сам с собою говорю
TTITLE10=Молитва
TTITLE11=Маме...
TTITLE12=Черный цвет
TTITLE13=Мы все равны перед богом
TTITLE14=Подарите мне вечер в Москве
TTITLE15=Дождь
TTITLE16=Я устал от любви
EXTD=
EXTT0=
EXTT1=
EXTT2=
EXTT3=
EXTT4=
EXTT5=
EXTT6=
EXTT7=
EXTT8=
EXTT9=
EXTT10=
EXTT11=
EXTT12=
EXTT13=
EXTT14=
EXTT15=
EXTT16=
PLAYORDER=
